<?xml version="1.0" encoding="UTF-8"?> <svg xmlns="http://www.w3.org/2000/svg" xmlns:xlink="http://www.w3.org/1999/xlink" width="790px" height="219px" viewBox="0 0 790 219" version="1.1"><title>satisfi red</title><desc>Created with Sketch.</desc><g id="satisfi-" stroke="none" stroke-width="1" fill="none" fill-rule="evenodd"><g id="labs" transform="translate(653.773100, 188.219700)" fill="#FF3222"><polygon id="Fill-12" points="0 29.8832 0 0.3452 6.304 0.3452 6.304 24.3542 17.365 24.3542 17.365 29.8832"></polygon><path d="M42.3906,17.4496 L48.5226,17.4496 L45.3926,7.1606 L42.3906,17.4496 Z M50.5366,22.8956 L40.3316,22.8956 L37.7186,29.8836 L31.0296,29.8836 L42.0036,0.3456 L48.8226,0.3456 L59.7536,29.8836 L53.1526,29.8836 L50.5366,22.8956 Z" id="Fill-13"></path><path d="M82.165,17.1937 L82.165,24.3537 L88.209,24.3537 C90.225,24.3537 91.383,22.6367 91.383,20.7077 C91.383,18.8657 90.139,17.1937 88.081,17.1937 L82.165,17.1937 Z M82.165,12.0067 L87.095,12.0067 C88.681,12.0067 89.839,10.7177 89.839,8.9627 C89.839,7.0747 88.894,5.8747 87.053,5.8747 L82.165,5.8747 L82.165,12.0067 Z M92.41,14.1057 C94.213,14.5777 95.585,15.4777 96.526,16.8077 C97.513,18.1357 97.984,19.4657 97.984,20.8377 C97.984,23.3657 97.126,25.5087 95.412,27.2667 C93.696,29.0247 91.425,29.8827 88.553,29.8827 L75.861,29.8827 L75.861,0.3447 L87.694,0.3447 C93.011,0.3447 96.44,3.5577 96.44,8.5767 C96.44,10.8037 95.198,13.0337 92.41,14.1057 L92.41,14.1057 Z" id="Fill-14"></path><path d="M120.7402,21.224 C120.8682,23.238 122.4542,24.782 125.1562,24.782 C127.7272,24.782 129.4412,23.537 129.4852,21.652 C129.5272,20.152 128.7142,19.121 125.9272,18.308 L122.3682,17.322 C117.2652,15.736 114.7362,12.906 114.7362,8.832 C114.7362,6.218 115.7212,4.117 117.6522,2.487 C119.5822,0.815 122.0262,1.0658141e-14 124.8972,1.0658141e-14 C127.8132,1.0658141e-14 130.2142,0.815 132.0572,2.445 C133.9432,4.075 134.8872,6.26 134.8872,9.046 L128.6282,9.046 C128.6282,7.033 127.2562,5.703 124.8112,5.703 C122.5822,5.703 120.9962,6.947 120.9962,8.66 C120.9962,10.077 122.0672,11.062 124.1702,11.662 L127.6832,12.776 C133.2162,14.364 135.9152,17.364 135.7872,21.694 C135.7452,23.537 135.2292,25.167 134.1592,26.539 C132.0572,29.24 128.8002,30.355 125.1562,30.355 C121.9392,30.355 119.3682,29.497 117.3932,27.826 C115.4222,26.11 114.4362,23.923 114.4362,21.224 L120.7402,21.224 Z" id="Fill-15"></path></g><g id="satisfi" transform="translate(-0.000200, 0.000100)" fill="#FF3222"><path d="M34.306,117.9787 C35.006,128.9477 43.639,137.3487 58.343,137.3487 C72.344,137.3487 81.68,130.5817 81.912,120.3127 C82.145,112.1437 77.71,106.5447 62.542,102.1107 L43.172,96.7437 C15.403,88.1067 1.633,72.7067 1.633,50.5367 C1.633,36.3017 7.002,24.8657 17.503,15.9967 C28.004,6.8957 41.305,2.4627 56.943,2.4627 C72.811,2.4627 85.879,6.8957 95.915,15.7637 C106.181,24.6327 111.316,36.5337 111.316,51.7017 L77.245,51.7017 C77.245,40.7327 69.776,33.4997 56.475,33.4997 C44.34,33.4997 35.705,40.2687 35.705,49.6027 C35.705,57.3037 41.54,62.6707 52.973,65.9377 L72.111,72.0067 C102.215,80.6407 116.918,96.9767 116.218,120.5447 C115.983,130.5817 113.183,139.4487 107.349,146.9167 C95.915,161.6207 78.178,167.6867 58.343,167.6867 C40.84,167.6867 26.837,163.0197 16.103,153.9187 C5.367,144.5827 0,132.6817 0,117.9787 L34.306,117.9787 Z" id="Fill-2"></path><path d="M202.8926,2.84217094e-14 L120.3466,165.094 L285.4396,165.094 L202.8926,2.84217094e-14 Z M202.8926,14.087 L275.2466,158.793 L130.5396,158.793 L202.8926,14.087 Z M173.3776,129.64 L232.4076,129.64 L202.8926,70.611 L173.3776,129.64 Z M202.8926,84.698 L222.2136,123.34 L183.5716,123.34 L202.8926,84.698 Z" id="Fill-1"></path><polygon id="Fill-5" points="273.0169 35.134 273.0169 4.328 394.3689 4.328 394.3689 35.134 350.9619 35.134 350.9619 165.12 316.4239 165.12 316.4239 35.134"></polygon><polygon id="Fill-7" points="419.7942 165.1199 453.8672 165.1199 453.8672 4.3279 419.7942 4.3279"></polygon><path d="M517.3367,117.9787 C518.0367,128.9477 526.6707,137.3487 541.3737,137.3487 C555.3747,137.3487 564.7107,130.5817 564.9427,120.3127 C565.1757,112.1437 560.7417,106.5447 545.5727,102.1107 L526.2037,96.7437 C498.4347,88.1067 484.6637,72.7067 484.6637,50.5367 C484.6637,36.3017 490.0327,24.8657 500.5337,15.9967 C511.0347,6.8957 524.3357,2.4627 539.9747,2.4627 C555.8417,2.4627 568.9097,6.8957 578.9457,15.7637 C589.2127,24.6327 594.3477,36.5337 594.3477,51.7017 L560.2757,51.7017 C560.2757,40.7327 552.8077,33.4997 539.5067,33.4997 C527.3707,33.4997 518.7367,40.2687 518.7367,49.6027 C518.7367,57.3037 524.5707,62.6707 536.0047,65.9377 L555.1427,72.0067 C585.2457,80.6407 599.9487,96.9767 599.2487,120.5447 C599.0147,130.5817 596.2147,139.4487 590.3807,146.9167 C578.9457,161.6207 561.2087,167.6867 541.3737,167.6867 C523.8707,167.6867 509.8677,163.0197 499.1347,153.9187 C488.3987,144.5827 483.0307,132.6817 483.0307,117.9787 L517.3367,117.9787 Z" id="Fill-9"></path><polygon id="Fill-10" points="626.4715 165.1203 626.4715 4.3283 727.0535 4.3283 727.0535 34.4333 660.7775 34.4333 660.7775 71.0723 713.2845 71.0723 713.2845 100.9433 660.7775 100.9433 660.7775 165.1203"></polygon><path d="M755.2152,158.8009 L782.8842,158.8009 L782.8842,10.5829 L755.2152,10.5829 L755.2152,158.8009 Z M748.9142,165.1019 L789.1852,165.1019 L789.1852,4.2829 L748.9142,4.2829 L748.9142,165.1019 Z" id="Fill-11"></path></g></g></svg> 